# xmcd CD database file
#
# Track frame offsets:
#	183
#	14325
#	31358
#	42520
#	54070
#	72818
#	89195
#	102708
#	116770
#	132443
#	150508
#	165933
#
# Disc length: 2371 seconds
#
# Revision: 0
# Processed by: cddbd v1.5.2PL0 Copyright (c) Steve Scherf et al.
# Submitted via: CDex 1.70beta2
#
DISCID=9d09410c
DTITLE=Old Merry Tale Jazzband - Am Sonntag will mein Süsser...
DYEAR=1900
DGENRE=Jazz
TTITLE0=The Entertainer
TTITLE1=Tiger Rag
TTITLE2=Sellerie
TTITLE3=Dusty Rag
TTITLE4=Westend Blues
TTITLE5=As Long As I Live
TTITLE6=Am Sonntag will mein Süsser mit mir segeln gehn
TTITLE7=Off The Buffalo
TTITLE8=Jersey Lighning
TTITLE9=Blues My Naughty
TTITLE10=Der Pate
TTITLE11=Good Night Ladies
EXTD=
EXTT0=
EXTT1=
EXTT2=
EXTT3=
EXTT4=
EXTT5=
EXTT6=
EXTT7=
EXTT8=
EXTT9=
EXTT10=
EXTT11=
PLAYORDER=
